<?xml version="1.0" encoding="UTF-8" standalone="no"?>
<!-- Created with Inkscape (http://www.inkscape.org/) -->

<svg
   width="1920"
   height="1080"
   viewBox="0 0 1920 1080"
   version="1.1"
   id="svg1"
   xml:space="preserve"
   inkscape:version="1.4.2 (ebf0e940d0, 2025-05-08)"
   sodipodi:docname="void-rosepine.svg"
   inkscape:export-filename="../PNG/void-burst.png"
   inkscape:export-xdpi="192"
   inkscape:export-ydpi="192"
   xmlns:inkscape="http://www.inkscape.org/namespaces/inkscape"
   xmlns:sodipodi="http://sodipodi.sourceforge.net/DTD/sodipodi-0.dtd"
   xmlns:xlink="http://www.w3.org/1999/xlink"
   xmlns="http://www.w3.org/2000/svg"
   xmlns:svg="http://www.w3.org/2000/svg"><sodipodi:namedview
     id="namedview1"
     pagecolor="#ffffff"
     bordercolor="#000000"
     borderopacity="0.25"
     inkscape:showpageshadow="2"
     inkscape:pageopacity="0.0"
     inkscape:pagecheckerboard="0"
     inkscape:deskcolor="#d1d1d1"
     inkscape:document-units="px"
     inkscape:zoom="0.6907397"
     inkscape:cx="930.16226"
     inkscape:cy="534.93378"
     inkscape:window-width="1920"
     inkscape:window-height="1021"
     inkscape:window-x="0"
     inkscape:window-y="33"
     inkscape:window-maximized="1"
     inkscape:current-layer="svg1" /><defs
     id="defs1"><linearGradient
       id="linearGradient1"
       inkscape:collect="always"><stop
         style="stop-color:#524f67;stop-opacity:1;"
         offset="0"
         id="stop1" /><stop
         style="stop-color:#403d52;stop-opacity:1;"
         offset="0.5"
         id="stop14" /><stop
         style="stop-color:#191724;stop-opacity:1;"
         offset="1"
         id="stop2" /></linearGradient><radialGradient
       inkscape:collect="always"
       xlink:href="#linearGradient1"
       id="radialGradient2"
       cx="960"
       cy="541.75824"
       fx="960"
       fy="541.75824"
       r="960"
       gradientTransform="matrix(1,0,0,0.5625,0,235.26099)"
       gradientUnits="userSpaceOnUse" /></defs><rect
     style="fill:url(#radialGradient2)"
     id="rect1"
     width="1920"
     height="1080"
     x="0"
     y="0"
     inkscape:label="background" /><path
     id="path7"
     style="display:inline;fill:#000000;fill-opacity:0.424533;stroke:none;stroke-width:6.14807;stroke-dasharray:none;stroke-opacity:0.42"
     d="m 964.83546,441.77157 c -22.57558,0.0479 -44.56708,7.18042 -62.87358,20.39149 l 24.4942,24.4922 c 11.55575,-7.06884 24.83305,-10.82014 38.37938,-10.84317 33.22184,-7e-5 61.31044,21.95694 70.56064,52.14849 h -3.9346 c -1.0919,0 -1.8896,0.54519 -2.3936,1.63708 l -17.7017,39.6222 c -0.126,0.37797 -0.1881,0.69266 -0.1881,0.94463 0,0.50395 0.3768,0.7565 1.1327,0.7565 h 23.0813 c -1.8133,5.9519 -4.3473,11.68782 -7.6271,17.04327 l 24.5383,24.53824 c 9.2146,-12.78008 15.4563,-27.35553 18.4061,-42.66823 0.062,-0.0173 0.1242,-0.0283 0.1862,-0.046 2.6457,-0.75591 5.1652,-1.78617 7.559,-3.08804 2.4357,-1.34385 4.6826,-2.93936 6.7404,-4.78717 2.0998,-1.84781 3.9058,-3.86422 5.4176,-6.048 1.5539,-2.18378 2.7725,-4.49283 3.6544,-6.92858 0.8819,-2.47774 1.3229,-4.99725 1.3229,-7.559 0,-1.9318 -0.2947,-3.71771 -0.8826,-5.35554 -0.5879,-1.63784 -1.4498,-3.04292 -2.5837,-4.21879 -1.1339,-1.21788 -2.541,-2.16394 -4.2208,-2.83588 -1.6798,-0.67192 -3.61,-1.00666 -5.7938,-1.00666 h -11.6177 C 1060.4709,478.77906 1016.9766,441.7716 964.83546,441.7716 Z m -87.46585,44.93172 c -8.93109,12.38684 -15.06766,26.4608 -18.12398,41.25729 h -23.21536 c -0.71393,0 -1.23908,0.14632 -1.57504,0.44029 -0.29397,0.25198 -0.44229,0.58871 -0.44229,1.00866 v 0.37625 c 0,0.12598 0.0421,0.23222 0.12608,0.31621 l 21.29208,39.56016 c 0.20999,0.41996 0.48459,0.73465 0.82055,0.94463 0.33596,0.20998 0.79697,0.31421 1.38491,0.31421 h 1.48499 c 9.89591,49.34175 53.45911,86.51322 105.71391,86.51321 22.57558,-0.0479 44.56704,-7.18041 62.87354,-20.39148 l -24.4922,-24.4922 c -11.55571,7.06883 -24.83502,10.82015 -38.38134,10.84317 -40.08725,8e-5 -72.68435,-31.97123 -73.74077,-71.80349 l 31.11058,-21.55225 c 0.67192,-0.54595 1.00666,-1.00696 1.00666,-1.38492 0,-0.46195 -0.27258,-0.69245 -0.81854,-0.69245 h -4.09471 c -1.34386,0 -2.62466,0.41892 -3.84254,1.25883 l -23.24937,15.99257 c 0.74493,-12.00625 4.39542,-23.67426 10.70107,-33.97046 z m 87.44984,28.56889 a 34.330143,34.330143 0 0 0 -26.41947,12.8485 c -1.8116,0.18052 -3.59963,0.51481 -5.35755,1.03669 -2.68771,0.75593 -5.24932,1.80422 -7.68508,3.14808 -2.39376,1.34386 -4.62062,2.94135 -6.67841,4.78917 -2.0158,1.84781 -3.77967,3.86222 -5.2915,6.046 -1.46986,2.18378 -2.62438,4.47278 -3.4643,6.86654 -0.83991,2.39375 -1.25883,4.82909 -1.25883,7.30683 0,1.93181 0.29265,3.73775 0.88058,5.41758 0.58794,1.63783 1.44983,3.06696 2.58371,4.28484 1.13389,1.21788 2.54095,2.18399 4.2208,2.89792 1.67982,0.67193 3.61005,1.00666 5.79383,1.00666 h 16.13067 a 34.330143,34.330143 0 0 0 26.54555,13.01261 34.330143,34.330143 0 0 0 26.87178,-13.01261 h 11.38157 c 1.0919,0 1.8895,-0.56724 2.3935,-1.70113 l 17.6377,-39.6222 c 0.1679,-0.29398 0.2521,-0.56656 0.2521,-0.81854 0,-0.54594 -0.3989,-0.81854 -1.1968,-0.81854 h -21.6702 c -1.09196,0 -1.88967,0.54519 -2.39364,1.63708 l -2.32154,5.19544 a 34.330143,34.330143 0 0 0 -30.95447,-19.52092 z m -32.93378,43.76695 a 34.330143,34.330143 0 0 0 1.68311,4.06269 c -0.2632,-0.10442 -0.50744,-0.22269 -0.71647,-0.37025 -0.71392,-0.54593 -1.07071,-1.42788 -1.07071,-2.64575 0,-0.3111 0.0567,-0.68323 0.10407,-1.04669 z"
     inkscape:label="shadow" /><g
     id="g20"
     transform="translate(832.01681,434.7651)"
     style="display:inline;stroke:none;stroke-width:2;stroke-dasharray:none;stroke-opacity:1"
     inkscape:label="logo"><g
       id="g15"
       inkscape:label="circles"
       style="stroke:#ffffff;stroke-width:6;stroke-dasharray:none;stroke-opacity:1"><path
         d="M 128.01682,0 C 105.98494,0.04678314 84.523372,7.0072685 66.657757,19.900168 l 23.902685,23.902684 c 11.277448,-6.898594 24.236288,-10.559734 37.456378,-10.582214 39.77241,-7.9e-5 72.01434,32.241846 72.01426,72.014262 -0.0318,13.21538 -3.69956,26.16719 -10.60151,37.43708 l 23.94799,23.94799 c 12.8888,-17.87595 19.8404,-39.34715 19.87417,-61.38507 C 233.25173,47.115274 186.13644,0 128.01682,0 Z"
         fill="#abc2ab"
         id="path14"
         style="stroke:#e0def4;stroke-width:6;stroke-dasharray:none;stroke-opacity:1;fill:#9ccfd8;fill-opacity:1" /><path
         d="m 189.37588,190.56963 -23.90269,-23.90268 c -11.27745,6.89859 -24.23629,10.55974 -37.45637,10.58221 -39.772417,8e-5 -72.014343,-32.24185 -72.014264,-72.01426 0.03183,-13.215382 3.699547,-26.167196 10.60151,-37.437081 L 42.656067,43.849832 C 29.76725,61.725769 22.815686,83.196977 22.781918,105.2349 c 0,58.11962 47.115274,105.2349 105.234902,105.2349 22.03188,-0.0468 43.49344,-7.00726 61.35906,-19.90017 z"
         fill="#478061"
         id="path15"
         style="stroke:#e0def4;stroke-width:6;stroke-dasharray:none;stroke-opacity:1;fill:#31748f;fill-opacity:1" /><circle
         fill="#abc2ab"
         cx="128"
         cy="105.2349"
         r="33.503357"
         id="circle15"
         style="stroke:#e0def4;stroke-width:6;stroke-dasharray:none;stroke-opacity:1;fill:#9ccfd8;fill-opacity:1" /></g><g
       id="g19"
       inkscape:label="text"
       style="stroke:#ffffff;stroke-width:2.4;stroke-dasharray:none;stroke-opacity:1"><path
         d="m 30.591915,124.81039 c -1.147564,0.81968 -2.192665,1.22952 -3.135303,1.22952 h -4.057453 c -0.573782,0 -1.024609,-0.10245 -1.352481,-0.30737 -0.327871,-0.20493 -0.59427,-0.51231 -0.799195,-0.92215 L 0.46842244,86.203138 C 0.38645233,86.121168 0.34546728,86.01871 0.34546728,85.895763 v -0.368865 c 0,-0.409842 0.14344762,-0.737718 0.43034287,-0.983628 C 1.1036817,84.256383 1.615986,84.11294 2.3127229,84.11294 H 27.579567 c 1.35248,0 2.233641,0.409841 2.643482,1.229525 L 43.010172,109.99455 78.85096,85.342465 c 1.188548,-0.819684 2.438574,-1.229525 3.750078,-1.229525 h 3.995963 c 0.532806,0 0.799208,0.225413 0.799208,0.67624 0,0.368856 -0.327871,0.819683 -0.983614,1.35248 z"
         fill="#000000"
         id="path16"
         style="stroke:#e0def4;stroke-width:2.4;stroke-dasharray:none;stroke-opacity:1;fill:#26233a;fill-opacity:1" /><path
         d="m 86.35303,126.03991 c -2.131187,0 -4.016463,-0.32787 -5.65583,-0.98362 -1.639384,-0.69673 -3.012366,-1.63937 -4.118944,-2.82792 -1.106579,-1.18855 -1.946755,-2.58201 -2.520528,-4.18039 -0.573773,-1.63938 -0.860659,-3.40171 -0.860659,-5.287 0,-2.41807 0.409842,-4.79516 1.229525,-7.13126 0.819683,-2.33611 1.946754,-4.56976 3.381213,-6.70095 1.475427,-2.131187 3.196763,-4.098434 5.16401,-5.901741 2.008232,-1.803315 4.180404,-3.360721 6.516517,-4.672216 2.377097,-1.311495 4.877141,-2.336103 7.500131,-3.073825 2.623008,-0.778698 5.307485,-1.168047 8.053425,-1.168047 h 30.12348 c 2.17218,0 4.07795,0.327871 5.71734,0.983614 1.68035,0.655752 3.07381,1.577903 4.18039,2.766451 1.10658,1.147555 1.94676,2.520527 2.52053,4.118918 0.57379,1.59839 0.86069,3.340224 0.86069,5.2255 0,2.418083 -0.43034,4.815666 -1.29101,7.192756 -0.8197,2.33611 -1.96726,4.56976 -3.44269,6.70094 -1.47544,2.13118 -3.21728,4.11893 -5.22551,5.96323 -2.00823,1.80331 -4.2009,3.3812 -6.57799,4.73368 -2.37708,1.3115 -4.87713,2.35661 -7.50013,3.13531 -2.62299,0.73772 -5.26649,1.10657 -7.93048,1.10657 z m 37.00886,-25.1439 c 1.35249,-2.868898 2.02874,-5.020573 2.02874,-6.455023 0,-1.188549 -0.43035,-2.008237 -1.29103,-2.459063 -0.81969,-0.450827 -2.04921,-0.67624 -3.68858,-0.67624 h -8.36081 c -1.18854,0 -2.29512,0.163935 -3.31974,0.491807 -0.98363,0.286895 -1.90577,0.7992 -2.76644,1.536913 -0.86067,0.737722 -1.70084,1.72135 -2.52053,2.950883 -0.77869,1.229526 -1.57788,2.766434 -2.39757,4.610723 l -2.950895,6.70095 c -1.557397,3.48367 -2.336095,6.10667 -2.336095,7.869 0,1.18854 0.348364,2.04921 1.045092,2.582 0.696746,0.49181 1.700862,0.73772 3.012348,0.73772 h 8.42229 c 1.27052,0 2.43858,-0.18443 3.50417,-0.55328 1.0656,-0.40985 2.09021,-1.04511 3.07383,-1.90578 0.98362,-0.86067 1.92626,-2.00823 2.82791,-3.44268 0.90166,-1.43445 1.8238,-3.19678 2.76644,-5.28698 z"
         fill="#000000"
         id="path17"
         style="stroke:#e0def4;stroke-width:2.4;stroke-dasharray:none;stroke-opacity:1;fill:#26233a;fill-opacity:1" /><path
         d="m 144.12269,126.03991 c -0.73771,0 -1.10657,-0.2459 -1.10657,-0.73771 0,-0.2459 0.0615,-0.55329 0.18444,-0.92215 l 17.27487,-38.668719 c 0.49183,-1.065594 1.27053,-1.59839 2.33613,-1.59839 h 21.14791 c 0.7787,0 1.16805,0.266394 1.16805,0.799182 0,0.24591 -0.082,0.512313 -0.24589,0.799208 L 167.6682,124.38005 c -0.49182,1.10658 -1.27052,1.65986 -2.33612,1.65986 z"
         fill="#000000"
         id="path18"
         style="stroke:#e0def4;stroke-width:2.4;stroke-dasharray:none;stroke-opacity:1;fill:#26233a;fill-opacity:1" /><path
         d="m 174.34897,126.03991 c -0.73772,0 -1.10657,-0.2459 -1.10657,-0.73771 0,-0.2459 0.0615,-0.55329 0.18443,-0.92215 l 17.27488,-38.668719 c 0.49182,-1.065594 1.27053,-1.59839 2.33612,-1.59839 h 49.42712 c 2.13119,0 4.01646,0.327871 5.65583,0.983614 1.63937,0.655752 3.01234,1.577903 4.11892,2.766451 1.10657,1.147555 1.94676,2.520527 2.52055,4.118918 0.57377,1.59839 0.86066,3.340224 0.86066,5.2255 0,2.500053 -0.43033,4.959116 -1.291,7.377186 -0.86067,2.37709 -2.04922,4.63123 -3.56565,6.76242 -1.47543,2.13118 -3.23775,4.09843 -5.28696,5.90174 -2.00824,1.80331 -4.2009,3.36072 -6.578,4.67221 -2.33611,1.27052 -4.79517,2.27464 -7.37717,3.01235 -2.58203,0.73772 -5.16404,1.10658 -7.74605,1.10658 z m 53.48456,-25.1439 c 1.3115,-2.950868 1.96725,-5.102543 1.96725,-6.455023 0,-1.188549 -0.40984,-2.008237 -1.22952,-2.459063 -0.81969,-0.450827 -2.00824,-0.67624 -3.56565,-0.67624 h -12.47973 l -12.17235,27.479996 h 12.41826 c 1.22953,0 2.37709,-0.18443 3.44269,-0.55328 1.06559,-0.40985 2.06971,-1.0451 3.01234,-1.90578 0.98363,-0.90166 1.92627,-2.04921 2.82792,-3.44268 0.94264,-1.43445 1.88528,-3.19678 2.82791,-5.28698 z"
         fill="#000000"
         id="path19"
         style="display:inline;stroke:#e0def4;stroke-width:2.4;stroke-dasharray:none;stroke-opacity:1;fill:#26233a;fill-opacity:1" /></g></g></svg>
